<svg width="36" height="36" viewBox="0 0 36 36" fill="none" xmlns="http://www.w3.org/2000/svg">
    <path fill-rule="evenodd" clip-rule="evenodd" d="M12 20C12 15.5817 15.5817 12 20 12H28C32.4183 12 36 15.5817 36 20V24C36 28.4183 32.4183 32 28 32V36L24 32H20C15.5817 32 12 28.4183 12 24V20ZM20 13C16.134 13 13 16.134 13 20V24C13 27.866 16.134 31 20 31H24.4142L27 33.5858V31H28C31.866 31 35 27.866 35 24V20C35 16.134 31.866 13 28 13H20Z" fill="#D2B47D"/>
    <path fill-rule="evenodd" clip-rule="evenodd" d="M0 4.5C0 2.01472 2.01472 0 4.5 0H19.5C21.9853 0 24 2.01472 24 4.5V8.1H23V4.5C23 2.567 21.433 1 19.5 1H4.5C2.567 1 1 2.567 1 4.5V15.5C1 17.433 2.567 19 4.5 19H8.16667V20H4.5C2.01472 20 0 17.9853 0 15.5V4.5Z" fill="#D2B47D"/>
</svg>
