<svg width="36" height="36" viewBox="0 0 36 36" fill="none" xmlns="http://www.w3.org/2000/svg">
    <circle cx="12" cy="10" r="7.5" stroke="#D2B47D"/>
    <path fill-rule="evenodd" clip-rule="evenodd" d="M23 32.9998V30.8468C23 28.4874 21.7845 26.2944 19.7837 25.0439C15.0214 22.0674 8.97861 22.0674 4.21628 25.0439C2.21548 26.2944 1 28.4874 1 30.8468V32.9998H23ZM3.68629 24.1959C1.3931 25.6291 0 28.1426 0 30.8468V33.9998H24V30.8468C24 28.1426 22.6069 25.6291 20.3137 24.1959C15.2271 21.0167 8.77288 21.0167 3.68629 24.1959Z" fill="#D2B47D"/>
    <path fill-rule="evenodd" clip-rule="evenodd" d="M21.7235 4.8468C21.4983 4.58997 21.2566 4.34696 21 4.11928C22.1447 2.82275 23.8522 2 25.7596 2C29.2061 2 32 4.68629 32 8C32 11.3137 29.2061 14 25.7596 14C24.7369 14 23.7716 13.7635 22.9198 13.3442C23.0651 13.0409 23.1913 12.7273 23.2969 12.4049C24.0299 12.7846 24.8686 13 25.7596 13C28.6316 13 30.9599 10.7614 30.9599 8C30.9599 5.23858 28.6316 3 25.7596 3C24.1308 3 22.677 3.7199 21.7235 4.8468Z" fill="#D2B47D"/>
    <path fill-rule="evenodd" clip-rule="evenodd" d="M27.9999 30H34.9999H35.9999V29V25.9173C35.9999 23.7728 34.9643 21.7603 33.2192 20.5138C29.6937 17.9956 25.2439 17.4 21.2812 18.727C21.7849 18.9071 22.2814 19.1138 22.7688 19.347C26.1195 18.5837 29.7209 19.2439 32.638 21.3275C34.1202 22.3863 34.9999 24.0957 34.9999 25.9173V29H27.9999V30Z" fill="#D2B47D"/>
</svg>
