<svg width="112" height="112" viewBox="0 0 112 112" fill="none" xmlns="http://www.w3.org/2000/svg">
    <path d="M56 9.33333C46.7702 9.33333 37.7477 12.0703 30.0734 17.1981C22.3991 22.3259 16.4177 29.6142 12.8857 38.1414C9.35356 46.6687 8.42941 56.0518 10.2301 65.1042C12.0307 74.1567 16.4753 82.4719 23.0017 88.9983C29.5282 95.5248 37.8434 99.9693 46.8958 101.77C55.9483 103.571 65.3314 102.646 73.8586 99.1144C82.3858 95.5823 89.6741 89.6009 94.8019 81.9266C99.9297 74.2523 102.667 65.2298 102.667 56C102.667 49.8716 101.46 43.8033 99.1144 38.1414C96.7692 32.4796 93.3317 27.3351 88.9983 23.0017C84.6649 18.6683 79.5205 15.2308 73.8586 12.8856C68.1967 10.5404 62.1284 9.33333 56 9.33333ZM14 56C14.0074 47.8955 16.3595 39.9662 20.7726 33.1685C25.1856 26.3708 31.4712 20.9952 38.8711 17.6899C46.271 14.3846 54.4691 13.2909 62.4767 14.5406C70.4843 15.7904 77.9593 19.3303 84 24.7333L24.7334 84C17.8321 76.3053 14.0106 66.3361 14 56ZM56 98C45.6639 97.9895 35.6947 94.1679 28 87.2667L87.2667 28C92.6697 34.0408 96.2096 41.5157 97.4594 49.5233C98.7091 57.5309 97.6154 65.7291 94.3102 73.129C91.0049 80.5289 85.6292 86.8144 78.8315 91.2275C72.0339 95.6405 64.1046 97.9926 56 98Z" fill="#2A2A2A"/>
</svg>