<svg width="189" height="48" viewBox="0 0 189 48" fill="none" xmlns="http://www.w3.org/2000/svg">
    <g clip-path="url(#clip0)">
        <path d="M15.555 18.113C15.555 14.1174 12.9647 12.093 7.83693 12.093H0.224609V32.1774H2.81491V24.2928H7.99553L13.9162 32.1774H17.088L10.6916 23.8133C13.6519 23.174 15.555 20.9365 15.555 18.113ZM7.94266 21.8422H2.81491V14.4904H7.78408C11.2202 14.4904 12.9647 15.7157 12.9647 18.0597C12.9118 20.4038 10.9559 21.8422 7.94266 21.8422Z" fill="#2a2a2a"/>
        <path d="M27.8193 23.174H38.8149V20.7767H27.8193V14.4904H39.6079V12.093H25.229V32.1774H39.8193V29.7268H27.8193V23.174Z" fill="#2a2a2a"/>
        <path d="M57.4228 28.5015L49.6519 12.093H46.8501L56.4184 32.1774H58.3215L67.414 12.093H64.7179L57.4228 28.5015Z" fill="#2a2a2a"/>
        <path d="M83.2201 11.8267C80.3655 11.8267 77.9866 12.7856 76.0307 14.81C74.0747 16.7812 73.0703 19.285 73.0703 22.1618C73.0703 25.1452 74.0219 27.5958 76.0307 29.567C77.9866 31.5381 80.3655 32.497 83.2201 32.497C86.0219 32.497 88.4536 31.5381 90.4095 29.5137C92.3655 27.5425 93.3699 25.0919 93.3699 22.1618C93.3699 19.1785 92.4183 16.7279 90.4095 14.7567C88.4536 12.7856 86.0219 11.8267 83.2201 11.8267ZM88.5064 27.7024C87.0791 29.1408 85.3346 29.9399 83.2201 29.9399C81.1584 29.9399 79.4139 29.194 77.9866 27.7024C76.5593 26.264 75.7664 24.3461 75.7664 22.1086C75.7664 19.8178 76.4536 17.9532 77.9337 16.5148C79.3611 15.0764 81.1056 14.2773 83.2201 14.2773C85.2289 14.2773 87.0263 15.0231 88.4536 16.5148C89.8809 17.9532 90.621 19.8711 90.621 22.1086C90.621 24.3994 89.9338 26.264 88.5064 27.7024Z" fill="#2a2a2a"/>
        <path d="M104.736 12.093H102.146V32.1774H116.577V29.7268H104.736V12.093Z" fill="#2a2a2a"/>
        <path d="M130.586 28.5015L122.815 12.093H120.013L129.581 32.1774H131.485L140.63 12.093H137.881L130.586 28.5015Z" fill="#2a2a2a"/>
        <path d="M150.885 23.174H161.881V20.7767H150.885V14.4904H162.674V12.093H148.295V32.1774H162.938V29.7268H150.885V23.174Z" fill="#2a2a2a"/>
        <path d="M182.656 23.7602C185.617 23.1742 187.52 20.9366 187.52 18.0598C187.52 14.0643 184.93 12.0399 179.802 12.0399H172.189V32.1242H174.78V24.2929H179.96L185.881 32.1775H189.053L182.656 23.7602ZM179.855 21.8423H174.727V14.4905H179.696C183.132 14.4905 184.877 15.7158 184.877 18.0598C184.877 20.4039 182.921 21.8423 179.855 21.8423Z" fill="#2a2a2a"/>
    </g>
    <defs>
        <clipPath id="clip0">
            <rect width="189" height="48" fill="#2a2a2a"/>
        </clipPath>
    </defs>
</svg>