<svg width="24" height="24" viewBox="0 0 24 24" fill="none" xmlns="http://www.w3.org/2000/svg">
    <path d="M19 10.5V12.5C19 14.3565 18.2625 16.137 16.9498 17.4497C15.637 18.7625 13.8565 19.5 12 19.5C10.1435 19.5 8.36302 18.7625 7.05027 17.4497C5.73751 16.137 5.00002 14.3565 5.00002 12.5V10.5H4.00002V12.5C3.99603 14.5379 4.76991 16.5005 6.1637 17.9872C7.55749 19.4739 9.46612 20.3726 11.5 20.5V23.5H12.5V20.5C14.5339 20.3726 16.4425 19.4739 17.8363 17.9872C19.2301 16.5005 20.004 14.5379 20 12.5V10.5H19ZM12 16.5C13.0609 16.5 14.0783 16.0786 14.8284 15.3284C15.5786 14.5783 16 13.5609 16 12.5V5.5C16 4.43913 15.5786 3.42172 14.8284 2.67157C14.0783 1.92143 13.0609 1.5 12 1.5C10.9391 1.5 9.92173 1.92143 9.17159 2.67157C8.42144 3.42172 8.00002 4.43913 8.00002 5.5V12.5C8.00002 13.5609 8.42144 14.5783 9.17159 15.3284C9.92173 16.0786 10.9391 16.5 12 16.5Z" fill="#2A2A2A"/>
</svg>