<svg width="24" height="24" viewBox="0 0 24 24" fill="none" xmlns="http://www.w3.org/2000/svg">
    <path d="M18.4404 17.2302C19.4562 15.8627 20.0033 14.2037 20.0004 12.5002V10.5002H19.0004V12.5002C18.9984 13.9339 18.5511 15.3317 17.7204 16.5002L4.35039 3.1502L3.65039 3.8502L8.00039 8.2102V12.5002C8.00039 13.5611 8.42182 14.5785 9.17196 15.3286C9.92211 16.0788 10.9395 16.5002 12.0004 16.5002C12.5668 16.502 13.1272 16.3835 13.6443 16.1525C14.1615 15.9214 14.6237 15.5832 15.0004 15.1602L17.1304 17.2902C16.1718 18.3228 14.9239 19.042 13.5499 19.3539C12.1759 19.6658 10.7398 19.5558 9.42932 19.0383C8.11885 18.5208 6.99504 17.6199 6.20485 16.4534C5.41467 15.2869 4.99488 13.9091 5.00039 12.5002V10.5002H4.00039V12.5002C3.99641 14.5381 4.77029 16.5007 6.16408 17.9874C7.55787 19.4741 9.46649 20.3728 11.5004 20.5002V23.5002H12.5004V20.5002C14.5212 20.3731 16.4171 19.4788 17.8004 18.0002L19.6504 19.8502L20.3504 19.1502L18.4404 17.2302ZM16.0004 12.5002V5.5002C16.015 4.43934 15.6075 3.41613 14.8677 2.65567C14.1279 1.89521 13.1163 1.45979 12.0554 1.4452C10.9945 1.43062 9.97131 1.83805 9.21085 2.57788C8.45039 3.31772 8.01498 4.32934 8.00039 5.3902L15.9104 13.3002C15.9656 13.037 15.9957 12.7691 16.0004 12.5002Z" fill="#f2f7f7"/>
</svg>