<svg width="24" height="24" viewBox="0 0 24 24" fill="none" xmlns="http://www.w3.org/2000/svg">
    <path d="M19.27 5H15V4C15 3.46957 14.7893 2.96086 14.4142 2.58579C14.0391 2.21071 13.5304 2 13 2H11C10.4696 2 9.96086 2.21071 9.58579 2.58579C9.21071 2.96086 9 3.46957 9 4V5H3V6H4.82L6.26 22H17.74L19.18 6H21V5H19.27ZM10 4C10 3.73478 10.1054 3.48043 10.2929 3.29289C10.4804 3.10536 10.7348 3 11 3H13C13.2652 3 13.5196 3.10536 13.7071 3.29289C13.8946 3.48043 14 3.73478 14 4V5H10V4ZM16.82 21H7.18L5.82 6H18.18L16.82 21ZM14.08 10.21L12 12.29L9.92 10.21L9.21 10.92L11.29 13L9.21 15.08L9.92 15.79L12 13.71L14.08 15.79L14.79 15.08L12.71 13L14.79 10.92L14.08 10.21Z" fill="#F2F7F7" fill-opacity="0.56"/>
</svg>