<svg width="20" height="20" viewBox="0 0 20 20" fill="none" xmlns="http://www.w3.org/2000/svg">
    <path d="M10 0C8.02219 0 6.08879 0.58649 4.4443 1.6853C2.79981 2.78412 1.51809 4.3459 0.761209 6.17317C0.00433284 8.00043 -0.193701 10.0111 0.192152 11.9509C0.578004 13.8907 1.53041 15.6725 2.92894 17.0711C4.32746 18.4696 6.10929 19.422 8.0491 19.8079C9.98891 20.1937 11.9996 19.9957 13.8268 19.2388C15.6541 18.4819 17.2159 17.2002 18.3147 15.5557C19.4135 13.9112 20 11.9778 20 10C20 8.68678 19.7413 7.38642 19.2388 6.17317C18.7363 4.95991 17.9997 3.85752 17.0711 2.92893C16.1425 2.00035 15.0401 1.26375 13.8268 0.761205C12.6136 0.258658 11.3132 0 10 0ZM10 14.5C9.27732 14.5024 8.56134 14.3614 7.89359 14.085C7.22583 13.8086 6.61959 13.4024 6.11 12.89L6.82 12.18C7.23713 12.5985 7.73274 12.9305 8.27843 13.157C8.82412 13.3836 9.40916 13.5002 10 13.5002C10.5909 13.5002 11.1759 13.3836 11.7216 13.157C12.2673 12.9305 12.7629 12.5985 13.18 12.18L13.89 12.89C13.3804 13.4024 12.7742 13.8086 12.1064 14.085C11.4387 14.3614 10.7227 14.5024 10 14.5Z" fill="#DD4113"/>
</svg>