<svg width="62" height="62" viewBox="0 0 62 62" fill="none" xmlns="http://www.w3.org/2000/svg">
<path d="M60.6839 1.81295C60.6594 1.69449 60.6016 1.58549 60.5173 1.4988C60.4329 1.41211 60.3256 1.35132 60.208 1.32359C52.3645 -0.596304 34.2457 6.2446 24.419 16.0722C22.6676 17.8106 21.0707 19.6981 19.6463 21.7135C16.6173 21.4392 13.5884 21.6702 11.0095 22.7961C3.72706 26.0008 1.60825 34.3704 1.01688 37.9633C0.984844 38.1602 0.998529 38.3618 1.05688 38.5526C1.11523 38.7433 1.21668 38.918 1.35336 39.0632C1.49004 39.2083 1.65829 39.3201 1.84506 39.3897C2.03184 39.4593 2.23212 39.4849 2.43039 39.4646L14.1235 38.1799C14.1316 39.0626 14.1845 39.9442 14.2822 40.8215C14.3432 41.4279 14.6135 41.994 15.0466 42.4224L19.5741 46.9537C20.0026 47.3874 20.5688 47.658 21.1751 47.7187C22.0464 47.816 22.9221 47.869 23.7988 47.8775L22.5165 59.5701C22.4965 59.7683 22.5223 59.9684 22.5919 60.1551C22.6615 60.3417 22.773 60.5098 22.9178 60.6464C23.0627 60.783 23.237 60.8844 23.4272 60.9428C23.6175 61.0013 23.8187 61.0151 24.0151 60.9834C27.6066 60.4059 35.9866 58.2854 39.1699 50.9984C40.2949 48.4145 40.5257 45.399 40.2661 42.382C42.2857 40.9577 44.1771 39.3594 45.9186 37.6054C55.7814 27.7893 62.5734 10.0541 60.6839 1.81295ZM37.152 24.8893C36.2906 24.0273 35.7039 22.929 35.4661 21.7333C35.2283 20.5376 35.3502 19.2981 35.8163 18.1718C36.2824 17.0454 37.0718 16.0826 38.0847 15.4053C39.0975 14.7279 40.2883 14.3664 41.5065 14.3664C42.7246 14.3664 43.9154 14.7279 44.9283 15.4053C45.9411 16.0826 46.7305 17.0454 47.1966 18.1718C47.6627 19.2981 47.7846 20.5376 47.5469 21.7333C47.3091 22.929 46.7224 24.0273 45.8609 24.8893C45.2895 25.4623 44.6108 25.917 43.8636 26.2272C43.1164 26.5374 42.3154 26.6971 41.5065 26.6971C40.6975 26.6971 39.8966 26.5374 39.1494 26.2272C38.4022 25.917 37.7234 25.4623 37.152 24.8893V24.8893Z" stroke="#ffffff" stroke-width="2" stroke-linecap="round" stroke-linejoin="round"/>
<path d="M7.98906 48.5781C6.82084 48.7215 5.73401 49.2511 4.90117 50.0828C2.83633 52.1547 2.64062 59.8281 2.64062 59.8281C2.64062 59.8281 10.3187 59.6324 12.3848 57.5652C13.2198 56.7337 13.7503 55.6451 13.8906 54.475" stroke="#ffffff" stroke-width="2" stroke-linecap="round" stroke-linejoin="round"/>
</svg>
