<svg width="24" height="24" viewBox="0 0 24 24" fill="none" xmlns="http://www.w3.org/2000/svg">
    <path d="M18.0367 20.2C16.9527 21.252 15.7567 21.088 14.6167 20.592C13.4047 20.086 12.2967 20.054 11.0167 20.592C9.42272 21.28 8.57672 21.08 7.61672 20.2C2.19672 14.62 2.99672 6.12 9.15672 5.80001C10.6507 5.88 11.6967 6.626 12.5767 6.688C13.8847 6.422 15.1367 5.66001 16.5367 5.76001C18.2187 5.896 19.4767 6.56 20.3167 7.754C16.8567 9.83399 17.6767 14.394 20.8547 15.674C20.2187 17.344 19.4027 18.994 18.0347 20.214L18.0367 20.2ZM12.4567 5.74001C12.2947 3.26001 14.3047 1.22002 16.6167 1.02002C16.9347 3.88001 14.0167 6.02 12.4567 5.74001Z" fill="black"/>
</svg>
