<svg width="12" height="12" viewBox="0 0 12 12" fill="none" xmlns="http://www.w3.org/2000/svg">
<path d="M6 0.235809C7.5913 0.235809 9.11742 0.843106 10.2426 1.9241C11.3679 3.0051 12 4.47124 12 6C12 7.52876 11.3679 8.99491 10.2426 10.0759C9.11742 11.1569 7.5913 11.7642 6 11.7642C4.4087 11.7642 2.88258 11.1569 1.75736 10.0759C0.632141 8.99491 0 7.52876 0 6C0 4.47124 0.632141 3.0051 1.75736 1.9241C2.88258 0.843106 4.4087 0.235809 6 0.235809V0.235809ZM6 1.19651C5.34339 1.19651 4.69321 1.32075 4.08658 1.56215C3.47995 1.80355 2.92876 2.15737 2.46447 2.60342C1.52678 3.50425 1 4.72604 1 6C1 7.15284 1.425 8.20961 2.13 9.04061L9.165 2.2821C8.27231 1.57969 7.15389 1.19608 6 1.19651ZM6 10.8035C7.32608 10.8035 8.59785 10.2974 9.53553 9.39659C10.4732 8.49576 11 7.27397 11 6C11 4.84716 10.575 3.79039 9.87 2.95939L2.835 9.71791C3.72769 10.4203 4.84611 10.8039 6 10.8035Z" fill="#A0A5AB"/>
</svg>
