<svg width="36" height="36" viewBox="0 0 36 36" fill="none" xmlns="http://www.w3.org/2000/svg">
    <path
            fill-rule="evenodd"
            clip-rule="evenodd"
            d="M24 20C24 15.5817 20.4183 12 16 12H8C3.58172 12 0 15.5817 0 20V24C0 28.4183 3.58172 32 8 32V36L12 32H16C20.4183 32 24 28.4183 24 24V20ZM16 13C19.866 13 23 16.134 23 20V24C23 27.866 19.866 31 16 31H11.5858L9 33.5858V31H8C4.13401 31 1 27.866 1 24V20C1 16.134 4.13401 13 8 13H16Z"
            fill="#F2F7F7"
    />
    <path
            fill-rule="evenodd"
            clip-rule="evenodd"
            d="M36 4.5C36 2.01472 33.9853 0 31.5 0H16.5C14.0147 0 12 2.01472 12 4.5V8.1H13V4.5C13 2.567 14.567 1 16.5 1H31.5C33.433 1 35 2.567 35 4.5V15.5C35 17.433 33.433 19 31.5 19H27.8333V20H31.5C33.9853 20 36 17.9853 36 15.5V4.5Z"
            fill="#F2F7F7"
    />
</svg>
