<svg width="36" height="36" viewBox="0 0 36 36" fill="none" xmlns="http://www.w3.org/2000/svg">
    <circle r="7.5" transform="matrix(-1 0 0 1 24 10)" stroke="#F2F7F7"/>
    <path
            fill-rule="evenodd"
            clip-rule="evenodd"
            d="M13 32.9998V30.8468C13 28.4874 14.2155 26.2944 16.2163 25.0439C20.9786 22.0674 27.0214 22.0674 31.7837 25.0439C33.7845 26.2944 35 28.4874 35 30.8468V32.9998H13ZM32.3137 24.1959C34.6069 25.6291 36 28.1426 36 30.8468V33.9998H12V30.8468C12 28.1426 13.3931 25.6291 15.6863 24.1959C20.7729 21.0167 27.2271 21.0167 32.3137 24.1959Z"
            fill="#F2F7F7"
    />
    <path
            fill-rule="evenodd"
            clip-rule="evenodd"
            d="M14.2765 4.8468C14.5017 4.58997 14.7434 4.34696 15 4.11928C13.8553 2.82275 12.1478 2 10.2404 2C6.79394 2 4 4.68629 4 8C4 11.3137 6.79394 14 10.2404 14C11.2631 14 12.2284 13.7635 13.0802 13.3442C12.9349 13.0409 12.8087 12.7273 12.7031 12.4049C11.9701 12.7846 11.1314 13 10.2404 13C7.36835 13 5.04007 10.7614 5.04007 8C5.04007 5.23858 7.36835 3 10.2404 3C11.8692 3 13.323 3.7199 14.2765 4.8468Z"
            fill="#F2F7F7"
    />
    <path
            fill-rule="evenodd"
            clip-rule="evenodd"
            d="M8.00008 30H1.00008H7.62939e-05V29V25.9173C7.62939e-05 23.7728 1.03575 21.7603 2.78081 20.5138C6.30633 17.9956 10.7561 17.4 14.7188 18.727C14.2151 18.9071 13.7186 19.1138 13.2312 19.347C9.88052 18.5837 6.27915 19.2439 3.36205 21.3275C1.87978 22.3863 1.00008 24.0957 1.00008 25.9173V29H8.00008V30Z"
            fill="#F2F7F7"
    />
</svg>
