<svg width="18" height="18" viewBox="0 0 18 18" fill="black" xmlns="http://www.w3.org/2000/svg">
    <path d="M0.00564079 9.01149C-0.174239 4.37136 3.97412 0.0833128 8.71493 0.0276795C11.1312 -0.174234 13.482 0.745078 15.3105 2.24445C14.5604 3.0525 13.7972 3.85121 12.982 4.59895C11.3722 3.64073 9.43406 2.9105 7.55266 3.55903C4.51813 4.40559 2.68041 7.91594 3.80337 10.8244C4.73335 13.8621 8.50448 15.5292 11.46 14.2531C12.9904 13.7162 13.9994 12.3328 14.4421 10.8462C12.6882 10.812 10.9338 10.8334 9.17992 10.7859C9.17555 9.76351 9.17118 8.745 9.17555 7.72259C12.1005 7.71831 15.0298 7.70975 17.9591 7.73543C18.139 10.2405 17.7617 12.9214 16.0995 14.932C13.8234 17.8019 9.6183 18.6442 6.19741 17.5183C2.56685 16.35 -0.0733794 12.7665 0.00564079 9.01149Z"/>
</svg>
