<svg width="24" height="24" viewBox="0 0 24 24" fill="none" xmlns="http://www.w3.org/2000/svg">
    <path d="M12.42 13.5L12.67 7H11.33L11.58 13.5H12.42ZM12 2C10.0222 2 8.08879 2.58649 6.4443 3.6853C4.79981 4.78412 3.51809 6.3459 2.76121 8.17317C2.00433 10.0004 1.8063 12.0111 2.19215 13.9509C2.578 15.8907 3.53041 17.6725 4.92894 19.0711C6.32746 20.4696 8.10929 21.422 10.0491 21.8079C11.9889 22.1937 13.9996 21.9957 15.8268 21.2388C17.6541 20.4819 19.2159 19.2002 20.3147 17.5557C21.4135 15.9112 22 13.9778 22 12C22 10.6868 21.7413 9.38642 21.2388 8.17317C20.7363 6.95991 19.9997 5.85752 19.0711 4.92893C18.1425 4.00035 17.0401 3.26375 15.8268 2.7612C14.6136 2.25866 13.3132 2 12 2ZM12 21C10.22 21 8.47991 20.4722 6.99987 19.4832C5.51983 18.4943 4.36628 17.0887 3.68509 15.4442C3.0039 13.7996 2.82567 11.99 3.17294 10.2442C3.5202 8.49836 4.37737 6.89471 5.63604 5.63604C6.89472 4.37737 8.49836 3.5202 10.2442 3.17293C11.99 2.82567 13.7996 3.0039 15.4442 3.68508C17.0887 4.36627 18.4943 5.51983 19.4832 6.99987C20.4722 8.47991 21 10.22 21 12C21 14.3869 20.0518 16.6761 18.364 18.364C16.6761 20.0518 14.387 21 12 21ZM12 15.54C11.8655 15.54 11.734 15.5799 11.6222 15.6546C11.5104 15.7293 11.4232 15.8355 11.3718 15.9598C11.3203 16.084 11.3068 16.2208 11.3331 16.3527C11.3593 16.4846 11.4241 16.6057 11.5192 16.7008C11.6143 16.7959 11.7354 16.8607 11.8673 16.8869C11.9993 16.9132 12.136 16.8997 12.2602 16.8482C12.3845 16.7968 12.4907 16.7096 12.5654 16.5978C12.6401 16.486 12.68 16.3545 12.68 16.22C12.6814 16.1303 12.6647 16.0413 12.631 15.9582C12.5973 15.8751 12.5473 15.7996 12.4838 15.7362C12.4204 15.6727 12.3449 15.6227 12.2618 15.589C12.1787 15.5553 12.0897 15.5387 12 15.54Z" fill="#DD4113"/>
</svg>