<svg width="24" height="24" viewBox="0 0 24 24" fill="none" xmlns="http://www.w3.org/2000/svg">
    <path d="M20 11.5C19.8815 9.54963 19.0532 7.71008 17.6716 6.32841C16.2899 4.94675 14.4504 4.11852 12.5 4V1H11.5V4C9.54963 4.11852 7.71008 4.94675 6.32841 6.32841C4.94675 7.71008 4.11852 9.54963 4 11.5H1V12.5H4C4.11852 14.4504 4.94675 16.2899 6.32841 17.6716C7.71008 19.0532 9.54963 19.8815 11.5 20V23H12.5V20C14.4504 19.8815 16.2899 19.0532 17.6716 17.6716C19.0532 16.2899 19.8815 14.4504 20 12.5H23V11.5H20ZM12 19C10.6155 19 9.26215 18.5895 8.11101 17.8203C6.95986 17.0511 6.06266 15.9579 5.53284 14.6788C5.00303 13.3997 4.86441 11.9922 5.1345 10.6344C5.4046 9.2765 6.07128 8.02922 7.05025 7.05025C8.02922 6.07128 9.2765 5.4046 10.6344 5.1345C11.9922 4.86441 13.3997 5.00303 14.6788 5.53284C15.9579 6.06266 17.0511 6.95986 17.8203 8.11101C18.5895 9.26215 19 10.6155 19 12C19 13.8565 18.2625 15.637 16.9497 16.9497C15.637 18.2625 13.8565 19 12 19ZM12 11.25C11.8517 11.25 11.7067 11.294 11.5833 11.3764C11.46 11.4588 11.3639 11.5759 11.3071 11.713C11.2503 11.85 11.2355 12.0008 11.2644 12.1463C11.2934 12.2918 11.3648 12.4254 11.4697 12.5303C11.5746 12.6352 11.7082 12.7066 11.8537 12.7356C11.9992 12.7645 12.15 12.7497 12.287 12.6929C12.4241 12.6361 12.5412 12.54 12.6236 12.4167C12.706 12.2933 12.75 12.1483 12.75 12C12.7474 11.8019 12.6676 11.6126 12.5275 11.4725C12.3874 11.3324 12.1981 11.2526 12 11.25Z"
          stroke="red"/>
</svg>
