<svg width="20" height="12" viewBox="0 0 20 12" fill="black" xmlns="http://www.w3.org/2000/svg">
    <path d="M16.5964 6.88114C16.2731 6.46114 16.3656 6.27429 16.5964 5.89886C16.6006 5.89457 19.2698 2.10086 19.5448 0.814286L19.5465 0.813428C19.6832 0.344571 19.5465 0 18.8857 0H16.6989C16.1422 0 15.8856 0.295714 15.748 0.626571C15.748 0.626571 14.6347 3.36771 13.0596 5.14457C12.5513 5.658 12.3163 5.82257 12.0388 5.82257C11.9021 5.82257 11.6896 5.658 11.6896 5.18914V0.813428C11.6896 0.251143 11.5337 0 11.0729 0H7.63443C7.28525 0 7.07775 0.262286 7.07775 0.506572C7.07775 1.03971 7.86527 1.16229 7.94694 2.66229V5.91686C7.94694 6.63 7.8211 6.76114 7.54193 6.76114C6.79857 6.76114 4.99434 4.00886 3.92514 0.858857C3.7093 0.247714 3.49845 0.000857081 2.9376 0.000857081H0.750026C0.125838 0.000857081 0 0.296571 0 0.627428C0 1.212 0.743359 4.11857 3.45679 7.95857C5.26518 10.5797 7.81194 12 10.1287 12C11.5212 12 11.6912 11.6846 11.6912 11.142C11.6912 8.63743 11.5654 8.40086 12.2629 8.40086C12.5863 8.40086 13.143 8.56543 14.443 9.82971C15.9289 11.3289 16.1731 12 17.0048 12H19.1915C19.8149 12 20.1307 11.6846 19.949 11.0623C19.5332 9.75343 16.7231 7.06114 16.5964 6.88114Z"/>
</svg>
