<svg width="20" height="20" viewBox="0 0 20 20" fill="none" xmlns="http://www.w3.org/2000/svg">
    <path d="M9.99968 4.37484C10.2057 4.37484 10.4071 4.31375 10.5784 4.19929C10.7497 4.08483 10.8832 3.92214 10.9621 3.7318C11.0409 3.54146 11.0615 3.33202 11.0213 3.12995C10.9811 2.92789 10.8819 2.74228 10.7362 2.5966C10.5906 2.45092 10.405 2.35171 10.2029 2.31152C10.0008 2.27133 9.79139 2.29196 9.60105 2.3708C9.41071 2.44964 9.24802 2.58315 9.13356 2.75445C9.0191 2.92575 8.95801 3.12715 8.95801 3.33317C8.95801 3.60944 9.06776 3.87439 9.26311 4.06974C9.45846 4.26509 9.72341 4.37484 9.99968 4.37484ZM9.99968 8.95817C9.79365 8.95817 9.59226 9.01926 9.42096 9.13372C9.24965 9.24818 9.11614 9.41087 9.0373 9.60121C8.95846 9.79155 8.93783 10.001 8.97802 10.2031C9.01822 10.4051 9.11743 10.5907 9.26311 10.7364C9.40879 10.8821 9.59439 10.9813 9.79646 11.0215C9.99852 11.0617 10.208 11.0411 10.3983 10.9622C10.5886 10.8834 10.7513 10.7499 10.8658 10.5786C10.9803 10.4073 11.0413 10.2059 11.0413 9.99984C11.0413 9.72357 10.9316 9.45862 10.7362 9.26327C10.5409 9.06792 10.2759 8.95817 9.99968 8.95817ZM9.99968 15.6248C9.79365 15.6248 9.59226 15.6859 9.42096 15.8004C9.24965 15.9149 9.11614 16.0775 9.0373 16.2679C8.95846 16.4582 8.93783 16.6677 8.97802 16.8697C9.01822 17.0718 9.11743 17.2574 9.26311 17.4031C9.40879 17.5488 9.59439 17.648 9.79646 17.6882C9.99852 17.7283 10.208 17.7077 10.3983 17.6289C10.5886 17.55 10.7513 17.4165 10.8658 17.2452C10.9803 17.0739 11.0413 16.8725 11.0413 16.6665C11.0413 16.3902 10.9316 16.1253 10.7362 15.9299C10.5409 15.7346 10.2759 15.6248 9.99968 15.6248Z" fill="#F2F7F7"/>
</svg>