<svg width="58" height="48" viewBox="0 0 58 48" fill="none" xmlns="http://www.w3.org/2000/svg">
    <g clip-path="url(#clip0)">
        <path d="M41.1816 22.4817C41.1816 18.8058 38.2475 15.8224 34.6323 15.8224H13.308C16.4517 8.09767 23.944 2.66371 32.6938 2.66371C44.2728 2.66371 53.7037 12.2531 53.7037 24.0266C53.7037 28.3418 52.4463 32.3374 50.2981 35.6404L52.551 37.0255C54.9612 33.2963 56.3234 28.8213 56.3234 24.0266C56.3234 10.7614 45.6874 0 32.6938 0C22.477 0 13.7796 6.606 10.4788 15.8224H0L4.2963 18.4861H9.69286H12.365H34.5799C36.7281 18.4861 38.5095 20.2974 38.5095 22.4817C38.5095 24.6659 36.7281 26.4772 34.5799 26.4772V29.141L30.2837 26.4772H25.2538L46.8401 39.7425C43.1201 43.2053 38.1427 45.3363 32.6938 45.3363C21.1147 45.3363 11.6838 35.7469 11.6838 23.9734C11.6838 23.0144 11.7362 22.0555 11.8934 21.0966H9.27371C9.16893 22.0555 9.11653 23.0144 9.11653 23.9734C9.11653 37.2386 19.7001 48 32.7462 48C39.1382 48 44.9539 45.3896 49.2502 41.1809L53.0226 43.525H58.0524L34.6847 29.141C38.2475 29.141 41.1816 26.1576 41.1816 22.4817Z" fill="#2a2a2a"/>
    </g>
    <defs>
        <clipPath id="clip0">
            <rect width="58" height="48" fill="#2a2a2a"/>
        </clipPath>
    </defs>
</svg>