<svg width="189" height="22" viewBox="0 0 189 22" fill="none" xmlns="http://www.w3.org/2000/svg">
    <path d="M15.555 7.11324C15.555 3.11768 12.9647 1.09326 7.83693 1.09326H0.224609V21.1776H2.81491V13.293H7.99553L13.9162 21.1776H17.088L10.6916 12.8136C13.6519 12.1743 15.555 9.93677 15.555 7.11324ZM7.94266 10.8424H2.81491V3.4906H7.78408C11.2202 3.4906 12.9647 4.7159 12.9647 7.05997C12.9118 9.40403 10.9559 10.8424 7.94266 10.8424Z"
          fill="#F2F7F7"/>
    <path d="M27.8193 12.1743H38.8149V9.77695H27.8193V3.4906H39.6079V1.09326H25.229V21.1776H39.8193V18.727H27.8193V12.1743Z"
          fill="#F2F7F7"/>
    <path d="M57.4228 17.5017L49.6519 1.09326H46.8501L56.4184 21.1776H58.3215L67.414 1.09326H64.7179L57.4228 17.5017Z"
          fill="#F2F7F7"/>
    <path d="M83.2202 0.82666C80.3656 0.82666 77.9867 1.78559 76.0308 3.81001C74.0748 5.78116 73.0704 8.28504 73.0704 11.1618C73.0704 14.1452 74.022 16.5958 76.0308 18.567C77.9867 20.5381 80.3656 21.497 83.2202 21.497C86.022 21.497 88.4537 20.5381 90.4097 18.5137C92.3656 16.5425 93.37 14.0919 93.37 11.1618C93.37 8.17849 92.4185 5.72788 90.4097 3.75674C88.4537 1.78559 86.022 0.82666 83.2202 0.82666ZM88.5066 16.7024C87.0792 18.1408 85.3348 18.9399 83.2202 18.9399C81.1585 18.9399 79.414 18.194 77.9867 16.7024C76.5594 15.264 75.7665 13.3461 75.7665 11.1086C75.7665 8.81778 76.4537 6.95319 77.9339 5.51478C79.3612 4.07638 81.1057 3.27727 83.2202 3.27727C85.229 3.27727 87.0264 4.02311 88.4537 5.51478C89.881 6.95319 90.6211 8.87106 90.6211 11.1086C90.6211 13.3994 89.9339 15.264 88.5066 16.7024Z"
          fill="#F2F7F7"/>
    <path d="M104.736 1.09326H102.145V21.1776H116.577V18.727H104.736V1.09326Z" fill="#F2F7F7"/>
    <path d="M130.586 17.5017L122.815 1.09326H120.013L129.581 21.1776H131.485L140.63 1.09326H137.881L130.586 17.5017Z"
          fill="#F2F7F7"/>
    <path d="M150.885 12.1743H161.881V9.77695H150.885V3.4906H162.674V1.09326H148.295V21.1776H162.938V18.727H150.885V12.1743Z"
          fill="#F2F7F7"/>
    <path d="M182.656 12.7604C185.617 12.1743 187.52 9.93682 187.52 7.06002C187.52 3.06446 184.929 1.04004 179.802 1.04004H172.189V21.1244H174.78V13.2931H179.96L185.881 21.1777H189.053L182.656 12.7604ZM179.855 10.8425H174.727V3.49065H179.696C183.132 3.49065 184.877 4.71596 184.877 7.06002C184.877 9.40408 182.921 10.8425 179.855 10.8425Z"
          fill="#F2F7F7"/>
</svg>
