<svg width="24" height="24" viewBox="0 0 24 24" fill="none" xmlns="http://www.w3.org/2000/svg">
    <path d="M2.11994 7.81001C2.87869 11.2531 4.60655 14.4073 7.0996 16.9004C9.59265 19.3934 12.7468 21.1213 16.1899 21.88C17.2723 22.098 18.3969 21.9068 19.3464 21.3434C20.2959 20.78 21.0026 19.8844 21.3299 18.83L21.8399 17.23L16.8399 14.74L14.4599 17.12C12.7689 16.3912 11.2265 15.3573 9.90994 14.07C8.64049 12.7493 7.62371 11.2071 6.90994 9.52001L9.25994 7.14001L6.76994 2.14001L5.16994 2.65001C4.11142 2.97756 3.21271 3.6874 2.6489 4.64127C2.08508 5.59514 1.89652 6.72473 2.11994 7.81001Z" fill="#F2F7F7"/>
</svg>
