<svg width="36" height="36" viewBox="0 0 36 36" fill="none" xmlns="http://www.w3.org/2000/svg">
    <circle r="5.5" transform="matrix(-1 0 0 1 18 18)" stroke="#F2F7F7"/>
    <path fill-rule="evenodd" clip-rule="evenodd"
          d="M14.0244 5.86378L18 1.03292L21.9756 5.86379C22.4128 6.39499 23.0857 6.67373 23.7704 6.60723L29.9975 6.00246L29.3928 12.2296C29.3263 12.9143 29.605 13.5872 30.1362 14.0244L34.9671 18L30.1362 21.9756C29.605 22.4128 29.3263 23.0857 29.3928 23.7704L29.9975 29.9975L23.7704 29.3928C23.0857 29.3263 22.4128 29.605 21.9756 30.1362L18 34.9671L14.0244 30.1362C13.5872 29.605 12.9143 29.3263 12.2296 29.3928L6.00246 29.9975L6.60722 23.7704C6.67372 23.0857 6.39499 22.4128 5.86378 21.9756L1.03292 18L5.86378 14.0244C6.39499 13.5872 6.67372 12.9143 6.60722 12.2296L6.00246 6.00246L12.2296 6.60723C12.9143 6.67373 13.5872 6.39499 14.0244 5.86378ZM17.2024 0.376557C17.6156 -0.12552 18.3844 -0.125519 18.7976 0.376558L22.7732 5.20742C22.9917 5.47303 23.3282 5.61239 23.6706 5.57914L29.8977 4.97438C30.5449 4.91153 31.0885 5.45512 31.0256 6.10231L30.4209 12.3294C30.3876 12.6718 30.527 13.0083 30.7926 13.2268L35.6234 17.2024C36.1255 17.6156 36.1255 18.3844 35.6234 18.7976L30.7926 22.7732C30.527 22.9918 30.3876 23.3282 30.4209 23.6706L31.0256 29.8977C31.0885 30.5449 30.5449 31.0885 29.8977 31.0256L23.6706 30.4209C23.3282 30.3876 22.9917 30.527 22.7732 30.7926L18.7976 35.6234C18.3844 36.1255 17.6156 36.1255 17.2024 35.6234L13.2268 30.7926C13.0082 30.527 12.6718 30.3876 12.3294 30.4209L6.10231 31.0256C5.45512 31.0885 4.91152 30.5449 4.97438 29.8977L5.57914 23.6706C5.61239 23.3282 5.47302 22.9918 5.20742 22.7732L0.376553 18.7976C-0.125523 18.3844 -0.125523 17.6156 0.376553 17.2024L5.20742 13.2268C5.47302 13.0083 5.61239 12.6718 5.57914 12.3294L4.97438 6.10231C4.91152 5.45512 5.45512 4.91152 6.1023 4.97438L12.3294 5.57914C12.6718 5.61239 13.0082 5.47303 13.2268 5.20742L17.2024 0.376557Z"
          fill="#F2F7F7"/>
</svg>
