<svg width="24" height="24" viewBox="0 0 24 24" fill="none" xmlns="http://www.w3.org/2000/svg">
    <path d="M12 15.5C11.409 15.5011 10.8237 15.385 10.2778 15.1585C9.73197 14.9319 9.23648 14.5993 8.82 14.18L8.11 14.89C8.62076 15.401 9.22719 15.8064 9.89465 16.0829C10.5621 16.3595 11.2775 16.5018 12 16.5018C12.7225 16.5018 13.4379 16.3595 14.1054 16.0829C14.7728 15.8064 15.3792 15.401 15.89 14.89L15.18 14.18C14.7635 14.5993 14.268 14.9319 13.7222 15.1585C13.1764 15.385 12.591 15.5011 12 15.5ZM12 2C10.0222 2 8.08879 2.58649 6.4443 3.6853C4.79981 4.78412 3.51809 6.3459 2.76121 8.17317C2.00433 10.0004 1.8063 12.0111 2.19215 13.9509C2.578 15.8907 3.53041 17.6725 4.92894 19.0711C6.32746 20.4696 8.10929 21.422 10.0491 21.8079C11.9889 22.1937 13.9996 21.9957 15.8268 21.2388C17.6541 20.4819 19.2159 19.2002 20.3147 17.5557C21.4135 15.9112 22 13.9778 22 12C22 10.6868 21.7413 9.38642 21.2388 8.17317C20.7363 6.95991 19.9997 5.85752 19.0711 4.92893C18.1425 4.00035 17.0401 3.26375 15.8268 2.7612C14.6136 2.25866 13.3132 2 12 2ZM12 21C10.22 21 8.47991 20.4722 6.99987 19.4832C5.51983 18.4943 4.36628 17.0887 3.68509 15.4442C3.0039 13.7996 2.82567 11.99 3.17294 10.2442C3.5202 8.49836 4.37737 6.89471 5.63604 5.63604C6.89472 4.37737 8.49836 3.5202 10.2442 3.17293C11.99 2.82567 13.7996 3.0039 15.4442 3.68508C17.0887 4.36627 18.4943 5.51983 19.4832 6.99987C20.4722 8.47991 21 10.22 21 12C21 14.3869 20.0518 16.6761 18.364 18.364C16.6761 20.0518 14.387 21 12 21Z" fill="#F2F7F7" fill-opacity="0.56"/>
</svg>