<svg width="24" height="24" viewBox="0 0 24 24" fill="none" xmlns="http://www.w3.org/2000/svg">
    <path d="M15 5V4C15 3.46957 14.7893 2.96086 14.4142 2.58579C14.0391 2.21071 13.5304 2 13 2H11C10.4696 2 9.96086 2.21071 9.58579 2.58579C9.21071 2.96086 9 3.46957 9 4V5H3V6H21V5H15ZM14 5H10V4C10 3.73478 10.1054 3.48043 10.2929 3.29289C10.4804 3.10536 10.7348 3 11 3H13C13.2652 3 13.5196 3.10536 13.7071 3.29289C13.8946 3.48043 14 3.73478 14 4V5ZM6.26 22H17.74L19.09 7H4.91L6.26 22ZM9.26 11.92L9.97 11.21L12 13.29L14.08 11.21L14.79 11.92L12.71 14L14.79 16.08L14.08 16.79L12 14.71L9.92 16.79L9.21 16.08L11.29 14L9.26 11.92Z" fill="#F2F7F7"/>
</svg>