<svg width="12" height="12" viewBox="0 0 12 12" fill="none" xmlns="http://www.w3.org/2000/svg">
    <path d="M11.0629 2.68962L10.1388 1.7514C9.04067 0.629921 7.55207 0 6 0C4.44793 0 2.95933 0.629921 1.86117 1.7514C1.07808 2.5454 0.53384 3.55217 0.292842 4.65256H1.63991C1.86284 3.87414 2.28069 3.16874 2.85213 2.60617C3.42356 2.0436 4.12876 1.64335 4.89794 1.44505C5.66712 1.24675 6.47361 1.25726 7.2376 1.47555C8.00158 1.69384 8.69657 2.11233 9.2538 2.68962L10.1714 3.62784L9.20174 4.59267H12V1.73143L11.0629 2.68962ZM9.2538 9.31038C8.83079 9.74295 8.3286 10.0861 7.77589 10.3202C7.22318 10.5543 6.63079 10.6748 6.03254 10.6748C5.43429 10.6748 4.84189 10.5543 4.28919 10.3202C3.73648 10.0861 3.23429 9.74295 2.81128 9.31038L1.86117 8.33889L2.79826 7.37406H0V10.2353L0.937093 9.31038L1.86117 10.2486C2.95933 11.3701 4.44793 12 6 12C7.55207 12 9.04067 11.3701 10.1388 10.2486C10.9273 9.44551 11.472 8.42646 11.7072 7.31417H10.3601C10.1599 8.06349 9.77958 8.74971 9.2538 9.31038Z" fill="#DD4113"/>
</svg>