<svg width="112" height="112" viewBox="0 0 112 112" fill="none" xmlns="http://www.w3.org/2000/svg">
    <path d="M107.844 21.168C107.844 21.1523 107.844 21.1383 107.839 21.1225C107.835 21.1068 107.833 21.0674 107.831 21.0403C107.822 20.9188 107.797 20.7989 107.759 20.6833C107.754 20.6675 107.759 20.6509 107.749 20.6351C107.74 20.6194 107.74 20.622 107.738 20.615C107.688 20.4879 107.621 20.3681 107.539 20.2589C107.521 20.2344 107.502 20.2125 107.481 20.1889C107.402 20.0924 107.311 20.006 107.21 19.9316C107.2 19.9238 107.191 19.9141 107.18 19.9071C107.068 19.8331 106.946 19.7742 106.818 19.7321C106.788 19.7216 106.759 19.7129 106.731 19.7041C106.596 19.6637 106.456 19.6422 106.316 19.6403H5.68742C5.54688 19.6422 5.40729 19.6637 5.27267 19.7041C5.24204 19.7129 5.21317 19.7216 5.18517 19.7321C5.05722 19.7742 4.93542 19.8331 4.82292 19.9071C4.81242 19.9141 4.80367 19.9238 4.79317 19.9316C4.69261 20.006 4.60152 20.0924 4.52192 20.1889C4.50267 20.2125 4.48254 20.2344 4.46417 20.2589C4.38224 20.3681 4.31543 20.4879 4.26554 20.615C4.26554 20.622 4.25679 20.6281 4.25417 20.6351C4.25154 20.6421 4.24979 20.6675 4.24454 20.6833C4.20608 20.7989 4.1817 20.9188 4.17192 21.0403C4.17192 21.0683 4.16404 21.0954 4.16404 21.1225C4.16404 21.1496 4.15967 21.1523 4.15967 21.168V90.8311C4.15967 90.8512 4.16492 90.8705 4.16579 90.8906C4.16835 90.9457 4.1739 91.0006 4.18242 91.0551C4.18942 91.0998 4.19554 91.1426 4.20604 91.1881C4.21955 91.2412 4.23591 91.2935 4.25504 91.3447C4.26992 91.3859 4.28392 91.427 4.30229 91.4664C4.32656 91.518 4.35373 91.5683 4.38367 91.6169C4.40467 91.6519 4.42567 91.6877 4.44929 91.721C4.48322 91.7674 4.51973 91.8118 4.55867 91.854C4.58754 91.8855 4.61642 91.917 4.64617 91.9467C4.66454 91.9634 4.67854 91.9835 4.69779 92.0001C4.71704 92.0167 4.72929 92.015 4.74329 92.0264C4.86275 92.1226 4.9961 92.2002 5.13879 92.2565C5.16942 92.2687 5.20092 92.2757 5.23242 92.2854C5.37045 92.3305 5.51426 92.3555 5.65942 92.3597C5.66992 92.3597 5.67954 92.365 5.69004 92.365H5.71017H106.293H106.313C106.324 92.365 106.333 92.3597 106.343 92.3597C106.489 92.3556 106.633 92.3306 106.771 92.2854C106.802 92.2757 106.832 92.2687 106.858 92.2565C107.001 92.2003 107.135 92.1227 107.255 92.0264C107.269 92.015 107.286 92.0115 107.3 92.0001C107.314 91.9887 107.334 91.9634 107.352 91.9467C107.383 91.917 107.412 91.8864 107.439 91.854C107.478 91.8118 107.515 91.7674 107.549 91.721C107.572 91.6877 107.593 91.6527 107.614 91.6169C107.644 91.5683 107.672 91.518 107.696 91.4664C107.714 91.427 107.728 91.3859 107.743 91.3447C107.762 91.2935 107.779 91.2412 107.792 91.1881C107.803 91.1444 107.809 91.1006 107.816 91.0551C107.824 91.0006 107.83 90.9457 107.832 90.8906C107.832 90.8705 107.838 90.8512 107.838 90.8311L107.844 21.168ZM40.0749 52.7765L55.0007 65.6189C55.2786 65.8578 55.633 65.9892 55.9995 65.9892C56.366 65.9892 56.7204 65.8578 56.9983 65.6189L71.9249 52.7765L102.998 89.2999H9.00279L40.0749 52.7765ZM7.21867 86.6705V24.5061L37.7562 50.7789L7.21867 86.6705ZM74.2437 50.7789L104.781 24.5061V86.6705L74.2437 50.7789ZM102.183 22.6993L71.1164 49.4314C71.1112 49.4358 71.1042 49.4384 71.0989 49.4436C71.0937 49.4489 71.0884 49.4559 71.0823 49.4611L55.9999 62.4383L40.9175 49.4611C40.9114 49.4559 40.907 49.4489 40.9009 49.4436L40.8834 49.4314L9.81479 22.6993H102.183Z" fill="#2A2A2A"/>
</svg>