<svg width="112" height="112" viewBox="0 0 112 112" fill="none" xmlns="http://www.w3.org/2000/svg">
    <path d="M84 32.6666H60.6667V23.3333H79.3333V9.33331H56V32.6666H28C23.0493 32.6666 18.3014 34.6333 14.8007 38.134C11.3 41.6347 9.33334 46.3826 9.33334 51.3333V98H102.667V51.3333C102.667 46.3826 100.7 41.6347 97.1993 38.134C93.6987 34.6333 88.9507 32.6666 84 32.6666ZM60.6667 14H74.6667V18.6666H60.6667V14ZM14 93.3333V51.3333C14 47.6203 15.475 44.0593 18.1005 41.4338C20.726 38.8083 24.287 37.3333 28 37.3333C31.713 37.3333 35.274 38.8083 37.8995 41.4338C40.525 44.0593 42 47.6203 42 51.3333V93.3333H14ZM98 93.3333H46.6667V51.3333C46.6517 48.6758 46.0694 46.0521 44.9588 43.6377C43.8482 41.2234 42.2348 39.074 40.2267 37.3333H56V65.3333C56 65.9521 56.2458 66.5456 56.6834 66.9832C57.121 67.4208 57.7145 67.6666 58.3333 67.6666C58.9522 67.6666 59.5457 67.4208 59.9833 66.9832C60.4208 66.5456 60.6667 65.9521 60.6667 65.3333V37.3333H84C87.713 37.3333 91.274 38.8083 93.8995 41.4338C96.525 44.0593 98 47.6203 98 51.3333V93.3333Z" fill="#2A2A2A"/>
</svg>